<svg width="50" height="50" viewBox="0 0 50 50" fill="none" xmlns="http://www.w3.org/2000/svg">
<path d="M24.9382 2.12465L1.85515 28.5609C-0.618383 31.3938 -0.618383 35.983 1.85515 38.8159L9.77046 47.881C10.9578 49.2408 12.5705 50 14.2525 50H24.671H25.6011H46.8339C48.5851 50 50 48.3796 50 46.3739C50 44.3683 48.5851 42.7479 46.8339 42.7479H34.5553L47.4869 27.949C49.9604 25.1161 49.9604 20.5269 47.4869 17.694L33.9022 2.12465C31.4287 -0.708215 27.4216 -0.708215 24.9481 2.12465H24.9382ZM25.6011 42.7592H24.671H14.2426L6.3273 33.6941L18.6653 19.5637L32.2598 35.1331L25.6011 42.7592Z" fill="black"/>
</svg>
